<?xml version="1.0" encoding="utf-8"?>
<!-- Generator: Adobe Illustrator 26.1.0, SVG Export Plug-In . SVG Version: 6.00 Build 0)  -->
<svg version="1.1" id="Layer_1" xmlns="http://www.w3.org/2000/svg" xmlns:xlink="http://www.w3.org/1999/xlink" x="0px" y="0px"
	 viewBox="0 0 439.2 512" style="enable-background:new 0 0 439.2 512;" xml:space="preserve">
<style type="text/css">
	.st0{fill:#FFFFFF;}
	.st1{fill:url(#SVGID_1_);}
	.st2{fill:url(#SVGID_00000168819988059884792070000000180037552156673411_);}
	.st3{fill:url(#SVGID_00000096777481898027899620000002755578238519711375_);}
	.st4{fill:url(#SVGID_00000086677341437231976280000016565312685702495164_);}
	.st5{fill:url(#SVGID_00000072254497289652840770000015791610878769004447_);}
	.st6{fill:url(#SVGID_00000003809942910439636750000009664400488694441380_);}
</style>
<g>
	<path class="st0" d="M16.2,344.3c0-59.1,0-118.1,0-177.2c0.2-1.5,0.6-3.1,0.7-4.6c1.6-16.7,6.1-32.6,14.6-47
		c24-40.8,59.8-62.1,107.1-62.6c54-0.6,108.1-0.2,162.1-0.1c29.5,0.1,56.1,9.1,78.7,28.3c29.2,24.8,43.5,56.7,43.6,94.9
		c0.1,53.4,0,106.7,0,160.1c0,5.6-0.3,11.1-1,16.6c-3.4,26.9-14.5,50.2-33.4,69.6c-18,18.4-39.7,30-65.1,34.8
		c-6,1.1-12.1,0.8-18,2.4c-57.2,0-114.4,0-171.6,0c-1.3-0.8-2.8-0.8-4.2-0.9c-7.6-0.2-15-1.4-22.3-3.4c-40-11.2-67.8-36.1-83.2-74.7
		C19.4,368.8,17.7,356.6,16.2,344.3z M382.3,254.3c-0.4-27.1,0.9-56.4-0.6-85.6c-1.4-26.9-14.4-47.7-36.8-62.6
		c-14-9.3-29.7-12.7-46.4-12.7c-50,0-100.1,0-150.1,0c-5.4,0-10.9,0-16.3,0.4c-26.7,2-47.5,14.4-62.3,36.6
		C60.5,144.6,57,160.4,57,177.2c0.1,50,0,100.1,0,150.1c0,5.4,0,10.9,0.4,16.3c2.4,29.8,17,51.8,43.1,66.1
		c12.5,6.9,26.1,9.2,40.2,9.2c49.7,0,99.3,0,149,0c6.1,0,12.2,0,18.3-0.5c23.5-1.9,42.5-12.2,57.1-30.5
		c12.2-15.3,17.3-33.1,17.3-52.5C382.2,309.1,382.3,282.8,382.3,254.3z"/>
	<path class="st0" d="M219.9,151c58.3,0.3,105.2,47.5,104.8,105.4C324.2,314.7,277,361.5,219.2,361
		c-58.2-0.5-104.8-47.4-104.6-105.1C114.8,197.7,162,150.7,219.9,151z M219.5,320.4c35.3,0.1,64.3-28.6,64.5-64
		c0.2-35.5-28.7-64.6-64.2-64.7c-35.3-0.1-64.3,28.7-64.5,64C155,291.2,183.9,320.3,219.5,320.4z"/>
	<path class="st0" d="M350,151.6c0,13.9-11.1,24.9-24.9,25c-13.8,0-25.1-11.1-25.2-24.8c-0.1-13.9,11.3-25.3,25.2-25.2
		C339,126.6,350.1,137.8,350,151.6z"/>
</g>
</svg>
