<?xml version="1.0" encoding="utf-8"?>
<!-- Generator: Adobe Illustrator 26.1.0, SVG Export Plug-In . SVG Version: 6.00 Build 0)  -->
<svg version="1.1" id="Layer_1" xmlns="http://www.w3.org/2000/svg" xmlns:xlink="http://www.w3.org/1999/xlink" x="0px" y="0px"
	 viewBox="0 0 439.2 512" style="enable-background:new 0 0 439.2 512;" xml:space="preserve">
<style type="text/css">
	.st0{fill:#FFFFFF;}
	.st1{fill:url(#SVGID_1_);}
	.st2{fill:url(#SVGID_00000091007591109657215360000010521423867057295753_);}
	.st3{fill:url(#SVGID_00000054953975809592907580000014431097170283571603_);}
	.st4{fill:url(#SVGID_00000134968875047734572190000001745744814107182730_);}
	.st5{fill:url(#SVGID_00000049924823600649570650000010084718154306801801_);}
	.st6{fill:url(#SVGID_00000165945352940429486240000005566574735290235063_);}
</style>
<path d="M416.6,74.5c-7-11.3-16.8-18.2-29.8-20.8c-0.8-0.2-1.6-0.1-2.2-0.8c-110,0-220.1,0-330.1,0c-7.4,1.9-14.7,4.2-20.8,9
	C23,70.5,17.2,81.6,16.5,95.3c-0.2,3.2-0.1,6.3-0.1,9.5c0,102.7,0,205.5,0,308.2c0,21.1,11.1,37.3,30.1,43.8
	c4.7,1.6,9.5,2.3,14.4,2.3c105.8,0,211.6,0,317.3,0c22.3,0,39.5-14.6,43.8-36.7c0.1-0.5,0.4-0.9,0.7-1.4c0-110,0-220.1,0-330.1
	C421,85.3,419.8,79.6,416.6,74.5z M115.5,147.9c2.8-0.5,5.7-0.6,8.6-0.6c63.8,0,127.7-0.1,191.5,0c19.3,0,34.3,8.2,44.6,24.7
	c0.8,1.2,1.7,2.4,1.8,4.3c-8.3,4.2-16.6,8.3-24.9,12.5c-29.7,15.1-59.5,30.2-89.2,45.4c-18.9,9.7-37.7,9.6-56.6,0
	c-37.1-19-74.3-37.9-111.4-56.9c-0.8-0.4-1.5-0.9-2.5-1.4C85.9,160.5,98.3,150.9,115.5,147.9z M367.2,313.4
	c0,25.2-16.9,45.6-41.5,50.4c-3.2,0.6-6.4,0.9-9.7,0.9c-64.4,0-128.7,0.1-193.1,0c-25.1,0-45.3-16.9-50.1-41.4
	c-0.6-3.2-0.9-6.4-0.9-9.7c-0.1-36.4,0-72.8,0-109.3c0-1,0.1-1.9,0.2-3.7c9.3,4.7,18.1,9,26.9,13.5c28,14.2,55.7,29,83.9,42.6
	c25.2,12.2,51,11.6,76-0.9c34.7-17.4,69.2-35.3,103.8-53c1.3-0.7,2.5-1.7,4.1-1.6c0.7,1.1,0.4,2.2,0.4,3.3
	C367.2,240.8,367.3,277.1,367.2,313.4z"/>
</svg>
