<?xml version="1.0" encoding="utf-8"?>
<!-- Generator: Adobe Illustrator 26.1.0, SVG Export Plug-In . SVG Version: 6.00 Build 0)  -->
<svg version="1.1" id="Layer_1" xmlns="http://www.w3.org/2000/svg" xmlns:xlink="http://www.w3.org/1999/xlink" x="0px" y="0px"
	 viewBox="0 0 439.2 512" style="enable-background:new 0 0 439.2 512;" xml:space="preserve">
<style type="text/css">
	.st0{fill:#FFFFFF;}
	.st1{fill:url(#SVGID_1_);}
	.st2{fill:url(#SVGID_00000136372270312880479370000000230949381206207900_);}
	.st3{fill:url(#SVGID_00000017496152165690299320000011615165273747208092_);}
	.st4{fill:url(#SVGID_00000052802272512924940370000017814487869099864468_);}
	.st5{fill:url(#SVGID_00000177445968589110304120000014859512659646734732_);}
	.st6{fill:url(#SVGID_00000111879624275707774000000010521321013665780611_);}
</style>
<g>
	<path d="M422.8,90.9c0,110,0,220.1,0,330.1c-0.2,0.5-0.6,0.9-0.7,1.4c-4.3,22-21.5,36.7-43.8,36.7c-105.8,0.1-211.6,0-317.3,0
		c-4.9,0-9.7-0.7-14.4-2.3c-18.9-6.5-30.1-22.7-30.1-43.8c0-102.7,0-205.5,0-308.2c0-3.2-0.1-6.4,0.1-9.5
		c0.7-13.7,6.4-24.8,17.2-33.4c6.2-4.9,13.4-7.1,20.8-9c110,0,220.1,0,330.1,0c0.6,0.7,1.4,0.6,2.2,0.8c13,2.6,22.9,9.5,29.8,20.8
		C419.8,79.6,421,85.3,422.8,90.9z M81.3,397.2c8.8,0,16.6,0,24.4,0c31.4-36.5,62.8-73,94.4-109.7c25.3,36.8,50.3,73.2,75.2,109.4
		c27.6,0,54.8,0,82.4,0c-37.5-54.5-74.6-108.6-111.8-162.7c34.3-39.9,68.3-79.4,102.8-119.6c-8.6,0-16.4,0-24.4,0
		c-29.6,34.4-59.3,68.9-89.3,103.8c-24-34.9-47.7-69.4-71.3-103.7c-27.5,0-54.6,0-82.4,0c36.2,52.6,72,104.7,107.9,157
		C153.3,313.5,117.6,355,81.3,397.2z"/>
	<path d="M324.6,379.7c-13,0-25,0-37.5,0c-57.3-81.9-114.7-164-172.4-246.6c12.7,0,24.8,0,37.5,0C209.3,214.9,266.7,297,324.6,379.7
		z"/>
</g>
</svg>
