<?xml version="1.0" encoding="utf-8"?>
<!-- Generator: Adobe Illustrator 26.1.0, SVG Export Plug-In . SVG Version: 6.00 Build 0)  -->
<svg version="1.1" id="Layer_1" xmlns="http://www.w3.org/2000/svg" xmlns:xlink="http://www.w3.org/1999/xlink" x="0px" y="0px"
	 viewBox="0 0 439.2 512" style="enable-background:new 0 0 439.2 512;" xml:space="preserve">
<style type="text/css">
	.st0{fill:#FFFFFF;}
	.st1{fill:url(#SVGID_1_);}
	.st2{fill:url(#SVGID_00000034053252681865787200000009869360183362062765_);}
	.st3{fill:url(#SVGID_00000120545054027772556060000015413284965728962725_);}
	.st4{fill:url(#SVGID_00000089568741268755532150000010161411755960277687_);}
	.st5{fill:url(#SVGID_00000093151486508478324040000004371986016943985834_);}
	.st6{fill:url(#SVGID_00000003104661164262116580000008113283532480011695_);}
</style>
<g>
	<path class="st0" d="M325.5,463c-15.6-7.9-31.2-15.7-46.7-23.6c-1.6-0.8-3.1-0.6-4.7-0.6c-25.5,0-50.9,0-76.4,0
		c-23.3,0-38.7-15.4-38.7-38.8c0-34,0-67.9,0-101.9c0-1.5,0-2.9,0-4.6c18.2,0,36,0,53.9,0c0.3,1.5-1.1,1.7-1.8,2.4
		c-3.5,3.8-4.7,8.2-2.7,13c1.9,4.8,5.7,7.3,10.9,7.7c1.1,0.1,2.2,0,3.2,0c46.6,0,93.2,0,139.9,0c1.7,0,3.5,0.1,5.2-0.3
		c6.1-1.3,10.3-7,9.6-13.1c-0.7-6.3-5.8-10.8-12.5-10.9c-22.4-0.1-44.7,0-67.1,0c-12.9,0-25.8,0-39.5,0
		c35.6-11.9,49.3-37.1,46.6-72.8c2.1,0,3.5,0,5,0c25.7,0,51.5,0,77.2,0c21.3,0,33.9,9.7,39.2,30.5c0.1,0.4,0.3,0.7,0.5,1.1
		c0,52,0,104,0,156.1c-0.2,0.5-0.5,1-0.6,1.5c-4.6,19.4-18,30-37.9,30.1c-10.2,0-20.5,0-30.7,0c-5.4,0-10.7,0-16.6,0
		c0,4.9,0.3,9.5-0.1,14c-0.5,5.2-4.5,7.9-8.7,10.2C329.8,463,327.7,463,325.5,463z M292.4,340.9c-23.8,0-47.7,0-71.5,0
		c-5.7,0-10,2.2-12.4,7.4c-3.8,8.3,2.4,16.9,12.2,16.9c30.6,0,61.1,0,91.7,0c17.2,0,34.5,0,51.7,0c5.3,0,9.4-2,11.9-6.8
		c4.2-8.3-1.8-17.4-11.7-17.4C340.3,340.9,316.3,340.9,292.4,340.9z"/>
	<path class="st0" d="M138.5,269.2c-14.7,11-29.5,22.1-44.2,33.2c-4.2,3.2-8.8,4.1-13.6,1.5c-4.6-2.4-6.6-6.4-6.6-11.6
		c0-3.8,0-7.5,0-11.3c0-3.9,0-7.7,0-12c-7.8,0-15.1,0-22.5,0c-23.6,0-38.9-15.3-38.9-38.9c0-47.4,0-94.8,0-142.3
		C12.6,64.4,28,49,51.3,49c63.5,0,126.9,0,190.4,0c23.2,0,38.6,15.3,38.6,38.4c0.1,47.8,0.2,95.7,0.3,143.5
		c0,19.5-11.3,34-29.3,37.7c-5.4,1.1-11,0.6-16.5,0.6C202.7,269.2,170.8,269.2,138.5,269.2z M159.2,169c0.8-0.4,1.5-0.7,2.3-1
		c13.4-6.5,21.1-17.1,21.6-32c0.5-14.9-6.2-26.4-19.3-33.4c-13.4-7.1-26.6-5.4-39,2.7c-7.8,5.1-6.8,16.5,1.4,20.6
		c4.2,2.1,8.3,1.6,12.3-0.7c3.5-2,7.1-3.3,11.2-2.3c5.5,1.3,9.3,6.2,9.3,11.7c0,6-4,10.6-10.4,12.1c-8,1.9-13.1,7.1-13.7,14.4
		c-0.2,2.7-0.1,5.4-0.1,8.1c0.1,7.5,4.7,12.8,11.4,13.2c6.7,0.4,12-4.4,12.8-11.8C159,170.1,159.1,169.6,159.2,169z M158.1,207.6
		c0.1-6.6-5.3-12.1-11.9-12.3c-6.5-0.1-12.2,5.2-12.4,11.8c-0.2,6.7,5.4,12.4,12.1,12.5C152.5,219.6,158,214.2,158.1,207.6z"/>
</g>
</svg>
