<?xml version="1.0" encoding="utf-8"?>
<!-- Generator: Adobe Illustrator 26.1.0, SVG Export Plug-In . SVG Version: 6.00 Build 0)  -->
<svg version="1.1" id="Layer_1" xmlns="http://www.w3.org/2000/svg" xmlns:xlink="http://www.w3.org/1999/xlink" x="0px" y="0px"
	 viewBox="0 0 439.2 512" style="enable-background:new 0 0 439.2 512;" xml:space="preserve">
<style type="text/css">
	.st0{fill:#FFFFFF;}
	.st1{fill:url(#SVGID_1_);}
	.st2{fill:url(#SVGID_00000119118649769918053000000007551934358247623096_);}
	.st3{fill:url(#SVGID_00000173840311675376113770000001470759848156904361_);}
	.st4{fill:url(#SVGID_00000176741461750221321870000016586084643887056567_);}
	.st5{fill:url(#SVGID_00000005968707697774903840000013325665992581891768_);}
	.st6{fill:url(#SVGID_00000052822039856794577950000013807178540911612317_);}
</style>
<g>
	<linearGradient id="SVGID_1_" gradientUnits="userSpaceOnUse" x1="27.9625" y1="256" x2="411.2375" y2="256">
		<stop  offset="7.739214e-02" style="stop-color:#FFC702"/>
		<stop  offset="0.1735" style="stop-color:#FDB206"/>
		<stop  offset="0.5565" style="stop-color:#F56514"/>
		<stop  offset="0.8295" style="stop-color:#F0351D"/>
		<stop  offset="0.9646" style="stop-color:#EE2221"/>
	</linearGradient>
	<path class="st1" d="M28,242.5c0-11.7,0-23.5,0-35.2c0.2-1.2,0.5-2.4,0.6-3.6c0.7-18.5,3.4-36.7,6.1-54.9
		c5.9-40.1,43.7-72.8,79.2-77.1c21-2.6,42.1-4.7,63.2-6c6.4-0.4,12.9-0.1,19.3-1.3c15.5,0,30.9,0,46.4,0c1.4,0.8,2.9,0.5,4.4,0.6
		c26.2,1,52.3,2.8,78.2,6.9c35.2,5.7,59.4,26.1,73.9,58.1c5.4,11.8,6.4,24.8,8.1,37.5c3.8,27.6,4.6,55.4,3.1,83.3
		c-1.1,19.7-2.9,39.4-7.8,58.5c-7.3,28.5-26,48-51.7,61.2c-13.3,6.8-27.9,8.2-42.4,9.8c-10.6,1.2-21.3,2.1-31.8,3.2
		c-5.2,7.9-10.3,15.6-15.5,23.3c-6.8,10-13.7,19.9-21.2,29.4c-12.2,15.5-29,15.4-41.2-0.1c-0.2-0.3-0.4-0.6-0.7-0.9
		c-7.9-10.1-15.3-20.6-22.4-31.3c-4.6-6.8-9.1-13.7-13.5-20.3c-12.9-1.3-25.4-2.8-37.9-3.9c-18.4-1.7-35.7-6.5-50.8-17.7
		c-19-14.2-32.9-31.8-37.9-55.5c-3.2-15.5-5.2-31.2-6.5-47C28.8,253.7,29.2,248,28,242.5z M228,126.3c-7.4-0.1-14.7,0.8-21.9,2.6
		c-24.5,6.4-41.4,21.1-49.6,45.3c-4.5,13.5,3.7,26.7,17.8,28.9c10.5,1.7,20.4-4.3,24.1-15.1c2.7-7.6,6.8-13.9,14.2-17.5
		c7.2-3.5,14.9-3.9,22.7-2.5c7.3,1.3,13.4,4.7,15.4,12.4c2.1,7.9-0.6,14.5-6.6,19.8c-3.6,3.2-7.6,6-11.8,8.6
		c-5.6,3.5-11.2,6.9-16.4,11.1c-15.3,12.3-19.2,28.6-16.4,47c1.5,10.2,11.7,17.1,22.4,16.1c10.3-1,18.5-9.8,18.2-21.1
		c-0.2-8.7,3.4-14.5,10.2-19c2.4-1.6,4.7-3.2,7.2-4.8c7.2-4.5,14.2-9.2,20.5-15c20.8-19.4,23.4-50.1,5.5-72.3
		C269.3,133.2,249.8,126.8,228,126.3z M197.5,324.3c0.2,3.9,0.1,7.7,0.9,11.5c1.1,5.5,5,9.2,10.6,10.1c6.9,1,13.9,1,20.8,0
		c5.8-0.8,9.9-4.3,10.9-10.1c1.3-7.5,1.3-15.1,0-22.7c-0.9-5.1-4.8-9-10-9.8c-7.4-1.2-14.9-1.1-22.3,0c-4.9,0.8-8.7,4.5-9.9,9.5
		C197.6,316.5,197.8,320.4,197.5,324.3z"/>
</g>
</svg>
