<?xml version="1.0" encoding="utf-8"?>
<!-- Generator: Adobe Illustrator 26.1.0, SVG Export Plug-In . SVG Version: 6.00 Build 0)  -->
<svg version="1.1" id="Layer_1" xmlns="http://www.w3.org/2000/svg" xmlns:xlink="http://www.w3.org/1999/xlink" x="0px" y="0px"
	 viewBox="0 0 439.2 512" style="enable-background:new 0 0 439.2 512;" xml:space="preserve">
<style type="text/css">
	.st0{fill:#FFFFFF;}
	.st1{fill:url(#SVGID_1_);}
	.st2{fill:url(#SVGID_00000054230180218478818910000000223190311513719454_);}
	.st3{fill:url(#SVGID_00000021825983238104158420000004712230427254690446_);}
	.st4{fill:url(#SVGID_00000039133816511291825410000005625108574590240668_);}
	.st5{fill:url(#SVGID_00000156550400532579260240000015281530066767933080_);}
	.st6{fill:url(#SVGID_00000160874326536609185000000013787174292563328916_);}
</style>
<g>
	<linearGradient id="SVGID_1_" gradientUnits="userSpaceOnUse" x1="28.6436" y1="274.4079" x2="370.3835" y2="274.4079">
		<stop  offset="7.739214e-02" style="stop-color:#FFC702"/>
		<stop  offset="0.1735" style="stop-color:#FDB206"/>
		<stop  offset="0.5565" style="stop-color:#F56514"/>
		<stop  offset="0.8295" style="stop-color:#F0351D"/>
		<stop  offset="0.9646" style="stop-color:#EE2221"/>
	</linearGradient>
	<path class="st1" d="M28.7,274.2c0-42,0-84,0-126.1c0-22.3,9.7-38.5,29.8-48.4c9.1-4.5,19-4.6,28.9-4.5c9.6,0.1,9.9,0,9.6,9.6
		c-0.5,13.3,2.2,25.4,11.8,35.3c7.6,7.8,16.8,12.6,27.7,12.7c20.6,0.3,41.1,0.2,61.7,0.3c20.1,0,40.3,0.1,60.4,0
		c21.6-0.2,37.9-12.6,42.7-32.4c1.7-7.1,1.2-14.3,1.1-21.5c0-3,0.7-4.1,3.9-4c8.6,0.4,17.3-0.6,25.9,1.5
		c21.5,5.4,37.4,23.5,37.9,45.9c0.8,36.1,0.3,72.3,0.4,108.4c0,1.9-0.6,2.8-2.6,3.2c-12.6,2.1-22.9,8.4-31.9,17.4
		c-35.3,35.5-70.7,71-106.3,106.2c-7.7,7.6-12.3,16.1-13.6,26.8c-1.3,10.6-3.4,21.2-5.3,31.7c-0.8,4.6-0.5,9.1,0.9,13.5
		c0.9,2.8,0.4,3.7-2.7,3.6c-19.4-0.1-38.8-0.1-58.2-0.1c-23.1,0-46.1,0-69.2,0c-30.8,0-52.4-21.4-52.6-52.3c-0.1-25.7,0-51.4,0-77.1
		C28.7,307.5,28.7,290.9,28.7,274.2z M184.3,232.4c10.3,0,20.6,0,30.9,0c12.5,0,25,0.1,37.5-0.1c9.4-0.1,15.3-9.3,11.5-17.6
		c-2.8-6.2-8.3-7.6-14.6-7.6c-43.3,0.1-86.7,0-130,0c-1.5,0-2.9,0-4.4,0.2c-6.8,0.8-11.4,6.1-11.2,12.9c0.2,7.2,5.5,12.1,13.4,12.2
		C139.6,232.4,162,232.4,184.3,232.4z M147,304.5c9.8,0,19.7,0,29.5,0c8,0,13.6-5,13.9-12.2c0.3-7.2-5.5-13.1-13.5-13.1
		c-19.9-0.2-39.9-0.2-59.8,0c-8,0.1-13.2,5.6-13.1,13c0.1,7.3,5.6,12.4,13.6,12.4C127.3,304.5,137.1,304.5,147,304.5z"/>
	
		<linearGradient id="SVGID_00000051357722876952212110000012759231782180776892_" gradientUnits="userSpaceOnUse" x1="118.0654" y1="95.2539" x2="281.2271" y2="95.2539">
		<stop  offset="7.739214e-02" style="stop-color:#FFC702"/>
		<stop  offset="0.1735" style="stop-color:#FDB206"/>
		<stop  offset="0.5565" style="stop-color:#F56514"/>
		<stop  offset="0.8295" style="stop-color:#F0351D"/>
		<stop  offset="0.9646" style="stop-color:#EE2221"/>
	</linearGradient>
	<path style="fill:url(#SVGID_00000051357722876952212110000012759231782180776892_);" d="M199.7,58.5c19.5,0,39.1,0,58.6,0
		c14.4,0,22.9,8.6,22.9,23.1c0,9.4,0,18.8,0,28.2c-0.1,13.2-8.4,22.1-21.5,22.2c-40.1,0.2-80.2,0.2-120.3,0
		c-13-0.1-21.2-8.9-21.3-21.9c0-10-0.1-20,0-30c0.1-12.7,8.9-21.6,21.6-21.6C159.7,58.4,179.7,58.5,199.7,58.5z"/>
	
		<linearGradient id="SVGID_00000009571099190077673690000006593605908712841919_" gradientUnits="userSpaceOnUse" x1="231.2982" y1="384.4774" x2="369.2952" y2="384.4774">
		<stop  offset="7.739214e-02" style="stop-color:#FFC702"/>
		<stop  offset="0.1735" style="stop-color:#FDB206"/>
		<stop  offset="0.5565" style="stop-color:#F56514"/>
		<stop  offset="0.8295" style="stop-color:#F0351D"/>
		<stop  offset="0.9646" style="stop-color:#EE2221"/>
	</linearGradient>
	<path style="fill:url(#SVGID_00000009571099190077673690000006593605908712841919_);" d="M243.8,453.5c-8,0.1-13.6-6.4-12.3-14
		c1.9-11.7,3.9-23.4,5.9-35.2c0.6-3.4,2.1-6.3,4.6-8.8c26.2-26.1,52.4-52.3,78.6-78.5c2-2,3.1-2.1,5.2,0
		c13.9,14.1,28,28.1,42.1,42.1c2.1,2.1,1.9,3.2-0.1,5.2c-26.3,26.2-52.6,52.5-78.9,78.8c-2,2-4.3,3.6-7.2,4.1
		c-12.1,2.1-24.3,4.2-36.4,6.2C244.7,453.5,244.1,453.5,243.8,453.5z"/>
	
		<linearGradient id="SVGID_00000013155656803303097200000017908733108971607950_" gradientUnits="userSpaceOnUse" x1="338.8366" y1="310.1491" x2="410.5564" y2="310.1491">
		<stop  offset="7.739214e-02" style="stop-color:#FFC702"/>
		<stop  offset="0.1735" style="stop-color:#FDB206"/>
		<stop  offset="0.5565" style="stop-color:#F56514"/>
		<stop  offset="0.8295" style="stop-color:#F0351D"/>
		<stop  offset="0.9646" style="stop-color:#EE2221"/>
	</linearGradient>
	<path style="fill:url(#SVGID_00000013155656803303097200000017908733108971607950_);" d="M379.4,274.4c11.6,0.5,22.2,6.8,27.9,19.6
		c5.7,12.8,3.8,25-5.4,35.7c-4.6,5.3-9.9,10-14.8,15.1c-1.4,1.5-2.3,1.6-3.9,0.1c-14.4-14.5-28.8-28.9-43.3-43.3
		c-1.8-1.7-1.3-2.7,0.2-4.2c4.7-4.6,9.2-9.4,14.1-14C360.6,277.4,368.2,274.4,379.4,274.4z"/>
</g>
</svg>
