<?xml version="1.0" encoding="utf-8"?>
<!-- Generator: Adobe Illustrator 26.1.0, SVG Export Plug-In . SVG Version: 6.00 Build 0)  -->
<svg version="1.1" id="Layer_1" xmlns="http://www.w3.org/2000/svg" xmlns:xlink="http://www.w3.org/1999/xlink" x="0px" y="0px"
	 viewBox="0 0 439.2 512" style="enable-background:new 0 0 439.2 512;" xml:space="preserve">
<style type="text/css">
	.st0{fill:url(#SVGID_1_);}
</style>
<g>
	<linearGradient id="SVGID_1_" gradientUnits="userSpaceOnUse" x1="6.5251" y1="256" x2="432.6371" y2="256">
		<stop  offset="7.739214e-02" style="stop-color:#FFC702"/>
		<stop  offset="0.1735" style="stop-color:#FDB206"/>
		<stop  offset="0.5565" style="stop-color:#F56514"/>
		<stop  offset="0.8295" style="stop-color:#F0351D"/>
		<stop  offset="0.9646" style="stop-color:#EE2221"/>
	</linearGradient>
	<path class="st0" d="M361.2,11.2c3.5,0.8,7.1,1.5,10.6,2.4c36.7,9.3,62.6,43.7,60.7,80.4c-2.1,39.6-30.2,71.3-68.7,76.6
		c-25.3,3.5-47.5-3.8-66.4-21.1c-1.4-1.3-2.7-2.6-4.4-4.2c-43.9,27.2-87.7,54.3-131.7,81.6c7.2,19.4,7.2,38.7,0,58.2
		c43.9,27.2,87.6,54.3,131.7,81.6c19.2-19.6,42.4-28.7,69.8-25.4c18.3,2.2,34,10.3,46.9,23.5c26.9,27.7,30.4,70,8.6,101.4
		c-21.8,31.3-62.4,42.9-97,28.4c-32.1-13.5-61-53.8-43.9-103.2c-43.7-27.1-87.5-54.2-131.2-81.2c-36.6,38.1-91.2,31.2-119.6-1
		c-28-31.7-26.7-79.4,3.2-109.6c29.4-29.8,81.1-33.9,116.3,2.4c43.7-27.1,87.5-54.2,131.5-81.4c-3.4-10-5.5-19.8-5.4-30.1
		c0.4-39,29.9-72.8,68.5-78.3c1.1-0.2,2.1-0.6,3.2-0.9C349.7,11.2,355.5,11.2,361.2,11.2z M352.6,471.5
		c28.3-0.1,50.9-22.9,50.7-51.2c-0.1-27.9-23-50.5-51-50.5c-28.1,0-50.9,23.1-50.7,51.2C301.9,449.2,324.5,471.6,352.6,471.5z
		 M301.6,91.4c0,28,22.7,50.8,50.6,50.8c28.2,0.1,51.1-22.8,51.1-50.9c0-28.2-22.9-51-51.1-50.8C324.1,40.7,301.6,63.3,301.6,91.4z
		 M35.8,255.8c-0.1,28,22.4,50.8,50.4,51c28.3,0.2,51.2-22.5,51.3-50.6c0.1-28-22.4-50.8-50.4-51C58.7,205,35.9,227.5,35.8,255.8z"
		/>
</g>
</svg>
