<?xml version="1.0" encoding="utf-8"?>
<!-- Generator: Adobe Illustrator 26.1.0, SVG Export Plug-In . SVG Version: 6.00 Build 0)  -->
<svg version="1.1" id="Layer_1" xmlns="http://www.w3.org/2000/svg" xmlns:xlink="http://www.w3.org/1999/xlink" x="0px" y="0px"
	 viewBox="0 0 439.2 512" style="enable-background:new 0 0 439.2 512;" xml:space="preserve">
<g>
	<path d="M399.3,469.9c-6.8-2-11.6-6.6-16.4-11.6c-31.7-33.1-63.5-66.1-95.2-99.1c-0.9-0.9-1.5-2-2.3-3.1
		c-44.8,29.9-92.8,38.8-144.2,25.3c-42.2-11.1-75.6-35.5-99.5-72C-6,236.5,7.4,140.5,72.6,84.6c66.5-57.1,162.7-56.6,228,1.1
		c67.7,59.8,79.6,166.7,17.7,240.3c11.6,12.1,23.3,24.3,35,36.4c21.6,22.5,42.9,45.3,65,67.3c14.5,14.5,7.3,36.2-9.8,39.7
		c-0.2,0.1-0.5,0.3-0.7,0.5C404.9,469.9,402.1,469.9,399.3,469.9z M186.1,342.5c70.7-0.3,127.8-57.7,127.4-128
		c-0.4-70.7-57.6-127.6-128.2-127.3c-70.3,0.3-127.3,57.7-127,128C58.6,285.6,116,342.8,186.1,342.5z"/>
</g>
</svg>
